<mxfile host="Electron" modified="2023-09-29T22:20:06.410Z" agent="Mozilla/5.0 (Windows NT 10.0; Win64; x64) AppleWebKit/537.36 (KHTML, like Gecko) draw.io/22.0.0 Chrome/114.0.5735.289 Electron/25.8.3 Safari/537.36" etag="h-4jvnCM4Qd68rs0kU4L" version="22.0.0" type="device">
  <diagram name="PÃ¡gina-1" id="SIYnpyoIr3MEilpOyBBH">
    <mxGraphModel dx="1433" dy="626" grid="1" gridSize="10" guides="1" tooltips="1" connect="1" arrows="1" fold="1" page="1" pageScale="1" pageWidth="827" pageHeight="1169" math="0" shadow="0">
      <root>
        <mxCell id="0" />
        <mxCell id="1" parent="0" />
        <mxCell id="wH6lbEZdOZn18-nNy2ko-21" style="edgeStyle=orthogonalEdgeStyle;rounded=0;orthogonalLoop=1;jettySize=auto;html=1;exitX=0;exitY=0.5;exitDx=0;exitDy=0;entryX=0.75;entryY=0;entryDx=0;entryDy=0;labelBackgroundColor=none;fontColor=default;strokeColor=#000000;" parent="1" source="7IOOtfi47b9IDA_GvfVG-13" target="wH6lbEZdOZn18-nNy2ko-7" edge="1">
          <mxGeometry relative="1" as="geometry">
            <mxPoint x="386.5" y="180" as="sourcePoint" />
          </mxGeometry>
        </mxCell>
        <mxCell id="wH6lbEZdOZn18-nNy2ko-23" style="edgeStyle=orthogonalEdgeStyle;rounded=0;orthogonalLoop=1;jettySize=auto;html=1;exitX=1;exitY=0.5;exitDx=0;exitDy=0;entryX=0.25;entryY=0;entryDx=0;entryDy=0;labelBackgroundColor=none;fontColor=default;strokeColor=#000000;" parent="1" source="7IOOtfi47b9IDA_GvfVG-13" target="wH6lbEZdOZn18-nNy2ko-12" edge="1">
          <mxGeometry relative="1" as="geometry">
            <mxPoint x="441.5" y="180" as="sourcePoint" />
          </mxGeometry>
        </mxCell>
        <mxCell id="wH6lbEZdOZn18-nNy2ko-24" style="edgeStyle=orthogonalEdgeStyle;rounded=0;orthogonalLoop=1;jettySize=auto;html=1;exitX=1;exitY=1;exitDx=0;exitDy=0;labelBackgroundColor=none;fontColor=default;strokeColor=#788AA3;" parent="1" edge="1">
          <mxGeometry relative="1" as="geometry">
            <mxPoint x="469" y="180" as="targetPoint" />
            <mxPoint x="469" y="180" as="sourcePoint" />
          </mxGeometry>
        </mxCell>
        <mxCell id="wH6lbEZdOZn18-nNy2ko-7" value="&lt;p style=&quot;margin:0px;margin-top:4px;text-align:center;&quot;&gt;&lt;i&gt;&amp;lt;&amp;lt;Interface&amp;gt;&amp;gt;&lt;/i&gt;&lt;br&gt;&lt;b&gt;ReprodutorMusical&lt;/b&gt;&lt;/p&gt;&lt;hr size=&quot;1&quot;&gt;&lt;p style=&quot;margin:0px;margin-left:4px;&quot;&gt;&lt;/p&gt;&lt;p style=&quot;margin:0px;margin-left:4px;&quot;&gt;+ tocarMusica(): void&lt;br&gt;+ pausarMusica(): void&lt;/p&gt;&lt;p style=&quot;margin:0px;margin-left:4px;&quot;&gt;+ selecionarMusica(): void&lt;/p&gt;" style="verticalAlign=top;align=left;overflow=fill;fontSize=12;fontFamily=Helvetica;html=1;whiteSpace=wrap;rounded=0;labelBackgroundColor=none;fillColor=#B2C9AB;strokeColor=#788AA3;fontColor=#46495D;" parent="1" vertex="1">
          <mxGeometry x="60" y="250" width="190" height="100" as="geometry" />
        </mxCell>
        <mxCell id="wH6lbEZdOZn18-nNy2ko-8" style="edgeStyle=orthogonalEdgeStyle;rounded=0;orthogonalLoop=1;jettySize=auto;html=1;exitX=0.5;exitY=1;exitDx=0;exitDy=0;labelBackgroundColor=none;fontColor=default;strokeColor=#788AA3;" parent="1" source="wH6lbEZdOZn18-nNy2ko-7" target="wH6lbEZdOZn18-nNy2ko-7" edge="1">
          <mxGeometry relative="1" as="geometry" />
        </mxCell>
        <mxCell id="wH6lbEZdOZn18-nNy2ko-11" value="&lt;p style=&quot;margin:0px;margin-top:4px;text-align:center;&quot;&gt;&lt;i&gt;&amp;lt;&amp;lt;Interface&amp;gt;&amp;gt;&lt;/i&gt;&lt;br&gt;&lt;b&gt;AparelhoTelefonico&lt;/b&gt;&lt;/p&gt;&lt;hr size=&quot;1&quot;&gt;&lt;p style=&quot;margin:0px;margin-left:4px;&quot;&gt;&lt;/p&gt;&lt;p style=&quot;margin:0px;margin-left:4px;&quot;&gt;+ efetuarLigacao(): void&lt;/p&gt;&lt;p style=&quot;margin:0px;margin-left:4px;&quot;&gt;+ atenderLigacao(): void&lt;/p&gt;&lt;p style=&quot;margin:0px;margin-left:4px;&quot;&gt;+ iniciarCorreioDeVoz(): void&lt;/p&gt;" style="verticalAlign=top;align=left;overflow=fill;fontSize=12;fontFamily=Helvetica;html=1;whiteSpace=wrap;rounded=0;labelBackgroundColor=none;fillColor=#B2C9AB;strokeColor=#788AA3;fontColor=#46495D;" parent="1" vertex="1">
          <mxGeometry x="298.5" y="250" width="231" height="100" as="geometry" />
        </mxCell>
        <mxCell id="wH6lbEZdOZn18-nNy2ko-12" value="&lt;p style=&quot;margin:0px;margin-top:4px;text-align:center;&quot;&gt;&lt;i&gt;&amp;lt;&amp;lt;Interface&amp;gt;&amp;gt;&lt;/i&gt;&lt;br&gt;&lt;b&gt;NavegadorInternet&lt;/b&gt;&lt;/p&gt;&lt;hr size=&quot;1&quot;&gt;&lt;p style=&quot;margin: 0px 0px 0px 4px; font-size: 1px;&quot;&gt;&amp;nbsp;&lt;/p&gt;&lt;p style=&quot;margin:0px;margin-left:4px;&quot;&gt;+ exibirPagina(): void&lt;/p&gt;&lt;p style=&quot;margin:0px;margin-left:4px;&quot;&gt;&lt;span style=&quot;background-color: initial;&quot;&gt;+ atualizarPagina(): void&lt;/span&gt;&lt;br&gt;&lt;/p&gt;&lt;p style=&quot;margin:0px;margin-left:4px;&quot;&gt;+ adicionarNovaAba(): void&lt;span style=&quot;background-color: initial;&quot;&gt;&lt;br&gt;&lt;/span&gt;&lt;/p&gt;" style="verticalAlign=top;align=left;overflow=fill;fontSize=12;fontFamily=Helvetica;html=1;whiteSpace=wrap;rounded=0;labelBackgroundColor=none;fillColor=#B2C9AB;strokeColor=#788AA3;fontColor=#46495D;" parent="1" vertex="1">
          <mxGeometry x="590" y="250" width="190" height="100" as="geometry" />
        </mxCell>
        <mxCell id="wH6lbEZdOZn18-nNy2ko-22" style="edgeStyle=orthogonalEdgeStyle;rounded=0;orthogonalLoop=1;jettySize=auto;html=1;exitX=0.5;exitY=1;exitDx=0;exitDy=0;entryX=0.5;entryY=0;entryDx=0;entryDy=0;labelBackgroundColor=none;fontColor=default;strokeColor=#000000;" parent="1" source="7IOOtfi47b9IDA_GvfVG-13" target="wH6lbEZdOZn18-nNy2ko-11" edge="1">
          <mxGeometry relative="1" as="geometry">
            <mxPoint x="414" y="180" as="sourcePoint" />
          </mxGeometry>
        </mxCell>
        <mxCell id="7IOOtfi47b9IDA_GvfVG-6" style="edgeStyle=orthogonalEdgeStyle;rounded=0;orthogonalLoop=1;jettySize=auto;html=1;exitX=0.5;exitY=0;exitDx=0;exitDy=0;entryX=0.5;entryY=1;entryDx=0;entryDy=0;" edge="1" parent="1" source="7IOOtfi47b9IDA_GvfVG-7" target="wH6lbEZdOZn18-nNy2ko-7">
          <mxGeometry relative="1" as="geometry">
            <mxPoint x="292.5" y="455" as="sourcePoint" />
          </mxGeometry>
        </mxCell>
        <mxCell id="7IOOtfi47b9IDA_GvfVG-7" value="&lt;p style=&quot;margin:0px;margin-top:4px;text-align:center;&quot;&gt;&lt;b&gt;IPod&lt;/b&gt;&lt;/p&gt;&lt;hr size=&quot;1&quot;&gt;&lt;p style=&quot;margin:0px;margin-left:4px;&quot;&gt;&lt;/p&gt;&lt;hr size=&quot;1&quot;&gt;&lt;p style=&quot;margin: 0px 0px 0px 4px;&quot;&gt;&lt;br&gt;&lt;/p&gt;" style="verticalAlign=top;align=left;overflow=fill;fontSize=12;fontFamily=Helvetica;html=1;whiteSpace=wrap;strokeColor=#788AA3;fontColor=#46495D;fillColor=#B2C9AB;rounded=0;" vertex="1" parent="1">
          <mxGeometry x="66" y="440" width="178" height="45" as="geometry" />
        </mxCell>
        <mxCell id="7IOOtfi47b9IDA_GvfVG-8" value="&lt;p style=&quot;margin:0px;margin-top:4px;text-align:center;&quot;&gt;LgPrada&lt;br&gt;&lt;/p&gt;&lt;hr size=&quot;1&quot;&gt;&lt;p style=&quot;margin:0px;margin-left:4px;&quot;&gt;&lt;/p&gt;&lt;hr size=&quot;1&quot;&gt;&lt;p style=&quot;margin: 0px 0px 0px 4px;&quot;&gt;&lt;br&gt;&lt;/p&gt;" style="verticalAlign=top;align=left;overflow=fill;fontSize=12;fontFamily=Helvetica;html=1;whiteSpace=wrap;strokeColor=#788AA3;fontColor=#46495D;fillColor=#B2C9AB;rounded=0;" vertex="1" parent="1">
          <mxGeometry x="325" y="440" width="178" height="45" as="geometry" />
        </mxCell>
        <mxCell id="7IOOtfi47b9IDA_GvfVG-10" value="&lt;p style=&quot;margin:0px;margin-top:4px;text-align:center;&quot;&gt;InternetExplorer&lt;/p&gt;&lt;hr size=&quot;1&quot;&gt;&lt;p style=&quot;margin:0px;margin-left:4px;&quot;&gt;&lt;/p&gt;&lt;hr size=&quot;1&quot;&gt;&lt;p style=&quot;margin: 0px 0px 0px 4px;&quot;&gt;&lt;br&gt;&lt;/p&gt;" style="verticalAlign=top;align=left;overflow=fill;fontSize=12;fontFamily=Helvetica;html=1;whiteSpace=wrap;strokeColor=#788AA3;fontColor=#46495D;fillColor=#B2C9AB;rounded=0;" vertex="1" parent="1">
          <mxGeometry x="596" y="440" width="178" height="45" as="geometry" />
        </mxCell>
        <mxCell id="7IOOtfi47b9IDA_GvfVG-11" style="edgeStyle=orthogonalEdgeStyle;rounded=0;orthogonalLoop=1;jettySize=auto;html=1;exitX=0.5;exitY=0;exitDx=0;exitDy=0;entryX=0.5;entryY=1;entryDx=0;entryDy=0;" edge="1" parent="1" source="7IOOtfi47b9IDA_GvfVG-8" target="wH6lbEZdOZn18-nNy2ko-11">
          <mxGeometry relative="1" as="geometry" />
        </mxCell>
        <mxCell id="7IOOtfi47b9IDA_GvfVG-12" style="edgeStyle=orthogonalEdgeStyle;rounded=0;orthogonalLoop=1;jettySize=auto;html=1;exitX=0.5;exitY=0;exitDx=0;exitDy=0;entryX=0.5;entryY=1;entryDx=0;entryDy=0;" edge="1" parent="1" source="7IOOtfi47b9IDA_GvfVG-10" target="wH6lbEZdOZn18-nNy2ko-12">
          <mxGeometry relative="1" as="geometry" />
        </mxCell>
        <mxCell id="7IOOtfi47b9IDA_GvfVG-13" value="&lt;p style=&quot;margin:0px;margin-top:4px;text-align:center;&quot;&gt;IPhone&lt;/p&gt;&lt;hr size=&quot;1&quot;&gt;&lt;p style=&quot;margin:0px;margin-left:4px;&quot;&gt;&lt;/p&gt;&lt;hr size=&quot;1&quot;&gt;&lt;p style=&quot;margin: 0px 0px 0px 4px;&quot;&gt;&lt;br&gt;&lt;/p&gt;" style="verticalAlign=top;align=left;overflow=fill;fontSize=12;fontFamily=Helvetica;html=1;whiteSpace=wrap;strokeColor=#788AA3;fontColor=#46495D;fillColor=#B2C9AB;rounded=0;" vertex="1" parent="1">
          <mxGeometry x="325" y="150" width="178" height="45" as="geometry" />
        </mxCell>
      </root>
    </mxGraphModel>
  </diagram>
</mxfile>
